<?xml version="1.0" standalone="no"?>
<!DOCTYPE svg PUBLIC "-//W3C//DTD SVG 20010904//EN"
 "http://www.w3.org/TR/2001/REC-SVG-20010904/DTD/svg10.dtd">
<svg version="1.0" xmlns="http://www.w3.org/2000/svg"
 width="512.000000pt" height="512.000000pt" viewBox="0 0 512.000000 512.000000"
 preserveAspectRatio="xMidYMid meet">
<metadata>
Created by potrace 1.16, written by Peter Selinger 2001-2019
</metadata>
<g transform="translate(0.000000,512.000000) scale(0.100000,-0.100000)"
fill="#000000" stroke="none">
<path d="M645 5114 c-82 -18 -153 -43 -230 -82 -73 -37 -108 -64 -185 -142
-78 -77 -104 -112 -142 -185 -92 -180 -83 44 -83 -2145 0 -2189 -9 -1965 83
-2145 38 -73 64 -108 142 -185 77 -78 112 -105 186 -143 52 -26 128 -56 175
-67 83 -20 117 -20 1967 -20 2126 0 1947 -7 2132 82 93 45 115 61 200 147 78
78 105 113 143 187 27 53 55 128 67 177 20 84 20 108 18 1999 -3 1910 -3 1913
-24 1974 -46 133 -103 224 -204 324 -78 79 -112 105 -186 143 -52 26 -128 56
-175 67 -83 20 -115 20 -1974 19 -1039 -1 -1899 -3 -1910 -5z m3337 -1456
c104 -49 171 -141 189 -260 5 -35 9 -412 9 -838 0 -426 -4 -803 -9 -838 -18
-119 -85 -211 -189 -260 l-57 -27 -1365 0 -1365 0 -57 27 c-104 49 -171 141
-189 260 -11 82 -11 1594 0 1676 21 142 116 250 248 281 22 5 619 8 1383 8
l1345 -2 57 -27z"/>
<path d="M1372 3451 c5 -13 1178 -1051 1188 -1051 10 0 1183 1038 1188 1051 2
5 -502 9 -1188 9 -686 0 -1190 -4 -1188 -9z"/>
<path d="M1180 2551 l0 -762 88 68 c468 362 821 639 822 644 0 3 -188 171
-417 375 -230 203 -435 384 -455 403 l-38 33 0 -761z"/>
<path d="M3485 2909 c-247 -219 -451 -402 -452 -406 -1 -4 201 -166 450 -360
l452 -351 3 379 c1 208 1 550 0 758 l-3 379 -450 -399z"/>
<path d="M1828 2007 c-235 -183 -427 -335 -427 -339 -1 -5 521 -8 1159 -8 638
0 1160 3 1159 8 0 9 -846 666 -863 670 -7 2 -61 -40 -119 -92 -122 -109 -133
-116 -179 -116 -40 0 -53 8 -181 122 -55 48 -105 88 -111 88 -6 -1 -203 -150
-438 -333z"/>
</g>
</svg>
